<?xml version="1.0" standalone="no"?>
<!DOCTYPE svg PUBLIC "-//W3C//DTD SVG 20010904//EN"
 "http://www.w3.org/TR/2001/REC-SVG-20010904/DTD/svg10.dtd">
<svg version="1.0" xmlns="http://www.w3.org/2000/svg"
 width="800.000000pt" height="800.000000pt" viewBox="0 0 800.000000 800.000000"
 preserveAspectRatio="xMidYMid meet">

<g transform="translate(0.000000,800.000000) scale(0.100000,-0.100000)"
fill="#000000" stroke="none">
<path d="M0 5745 l0 -2254 24 -35 23 -35 29 39 c29 40 64 53 64 25 0 -8 4 -15
10 -15 11 0 9 22 -2 30 -4 4 -1 16 8 28 l15 22 29 -20 c30 -22 70 -93 70 -127
0 -11 9 -40 20 -64 29 -65 27 -69 -34 -69 l-54 0 -8 78 c-4 42 -10 67 -12 55
-2 -13 -7 -23 -12 -23 -4 0 -3 -13 2 -28 6 -16 8 -41 4 -55 -5 -22 -12 -27
-35 -27 -16 0 -36 7 -45 15 -10 10 -17 12 -21 4 -4 -6 -13 -8 -21 -5 -8 3 -14
-1 -14 -8 0 -9 7 -12 20 -9 17 5 20 0 20 -27 0 -32 0 -32 -40 -25 l-40 7 0
-1611 0 -1611 533 0 534 0 23 118 c12 64 26 158 29 207 l6 90 55 -1 c57 -2
148 -28 237 -71 57 -26 76 -60 54 -94 -13 -22 -15 -49 -3 -49 5 0 8 -34 8 -75
-1 -56 -4 -74 -13 -70 -7 2 -13 0 -13 -4 0 -5 6 -11 13 -14 9 -3 9 -7 -2 -21
-13 -15 7 -16 300 -14 l314 3 7 67 c6 67 26 143 34 135 3 -2 0 -24 -5 -48 -5
-24 -12 -70 -16 -101 l-6 -58 45 0 c37 0 46 3 46 18 1 16 1 16 14 0 21 -29 30
-21 10 10 -16 24 -18 49 -16 224 1 145 6 208 17 240 8 24 15 60 15 81 0 21 9
58 20 81 11 24 22 63 25 87 9 66 26 127 47 167 10 20 18 50 18 68 0 64 34 142
64 146 29 4 31 38 5 89 -19 39 -21 52 -14 143 4 56 11 137 16 181 5 44 14 190
19 325 6 135 15 269 21 299 12 59 5 134 -14 149 -7 5 -20 12 -29 15 -19 7 -16
-11 10 -50 10 -16 13 -49 10 -125 -3 -93 -5 -103 -23 -106 -11 -2 -24 -8 -29
-12 -5 -5 -10 -152 -11 -327 l-2 -318 -37 -140 c-20 -77 -41 -160 -46 -184
-16 -71 -94 -224 -123 -240 l-26 -14 22 -17 21 -18 -22 -63 c-29 -84 -28 -112
8 -170 l30 -49 -9 -98 c-6 -66 -16 -110 -30 -137 -16 -30 -21 -34 -21 -18 0
12 5 34 11 50 8 21 7 42 -2 80 -12 52 -12 53 -28 30 -32 -45 -60 -128 -54
-163 5 -30 2 -35 -23 -44 -15 -6 -44 -9 -63 -7 -35 4 -35 4 6 5 23 1 44 6 47
11 3 5 -25 39 -63 76 -73 71 -202 144 -254 145 -16 0 -52 6 -80 14 -114 31
-196 39 -319 33 -68 -4 -136 -10 -153 -15 -16 -4 -49 -5 -72 -2 -30 5 -42 3
-40 -4 2 -6 20 -10 38 -8 29 2 35 -1 36 -18 2 -22 -12 -34 -28 -24 -8 4 -8 9
-1 13 6 4 -7 6 -28 6 -27 0 -47 8 -64 24 -26 24 -26 27 -26 168 0 136 2 148
29 216 55 136 63 185 42 251 -11 31 -11 67 -1 185 11 135 30 222 70 316 5 11
12 56 15 100 8 102 40 321 59 405 8 36 22 135 31 220 20 189 55 357 106 511
22 64 39 127 39 141 0 31 53 137 90 178 8 10 26 32 40 51 47 64 149 155 199
179 28 13 51 30 51 37 0 8 16 21 36 29 21 9 43 22 51 30 8 8 18 14 21 14 4 0
34 20 66 44 47 35 72 46 129 56 82 14 129 32 154 58 20 22 74 42 110 42 13 0
47 14 76 30 30 17 60 30 68 30 8 0 49 18 92 40 43 22 84 40 91 40 7 0 43 16
79 35 39 21 80 35 101 35 33 0 60 9 126 40 82 38 120 67 175 134 48 58 130
124 161 131 l29 7 -25 -14 c-32 -17 -36 -45 -14 -111 23 -72 29 -75 29 -14 1
29 9 95 19 147 22 116 15 300 -15 394 -11 32 -19 73 -19 91 0 32 -1 33 -34 25
-29 -6 -38 -4 -55 14 -12 12 -21 34 -21 48 0 14 -9 45 -20 69 -11 24 -20 58
-20 74 0 17 -7 48 -15 70 -17 47 -19 164 -4 218 7 27 7 59 0 105 -9 57 -8 69
6 84 9 10 22 18 29 18 16 0 69 -63 90 -108 9 -18 18 -31 21 -28 3 2 7 74 9
158 2 84 5 167 8 183 8 54 59 190 76 200 6 3 10 18 10 34 0 28 62 105 76 93 4
-4 4 2 0 13 -5 14 -4 17 4 9 12 -12 73 -6 65 6 -8 13 6 40 21 40 8 0 14 5 14
11 0 5 4 8 10 4 9 -6 51 29 49 42 0 4 4 9 10 11 7 2 9 -4 5 -15 -3 -10 3 -6
12 10 23 33 30 34 38 5 5 -19 8 -21 16 -8 9 13 10 13 11 0 0 -8 7 -2 14 15 12
28 65 55 65 33 0 -6 7 -8 15 -4 9 3 15 0 15 -9 0 -8 4 -15 9 -15 5 0 11 -9 14
-21 5 -17 9 -19 26 -9 16 8 21 8 21 -2 0 -10 2 -10 9 1 7 11 10 9 15 -7 6 -16
13 -20 39 -16 18 2 27 0 20 -4 -8 -5 -9 -13 -3 -22 6 -8 10 -10 10 -4 0 7 14
14 30 16 36 5 39 1 8 -12 -21 -8 -20 -9 8 -9 35 -1 54 -18 59 -53 4 -34 16
-59 25 -53 13 8 21 -25 10 -45 -7 -13 -7 -21 0 -25 5 -3 10 -1 10 4 0 6 4 11
9 11 5 0 9 -12 9 -26 0 -17 10 -35 28 -51 16 -13 22 -21 14 -17 -11 6 -10 2 3
-13 9 -11 14 -23 10 -26 -3 -4 -2 -7 4 -7 10 0 10 -2 14 -57 1 -18 6 -33 11
-33 4 0 8 -7 8 -16 0 -8 -4 -13 -9 -10 -5 3 -12 -1 -15 -10 -4 -10 -13 -13
-24 -10 -11 4 -29 -2 -45 -14 -14 -11 -29 -20 -34 -20 -5 0 -14 -5 -21 -12
-13 -13 -103 -21 -144 -12 -15 3 -30 14 -33 24 -6 19 -65 34 -65 16 0 -6 -4
-5 -9 3 -5 8 -18 12 -31 8 -12 -3 -34 -1 -48 4 -34 13 -151 18 -158 7 -3 -4
-14 -8 -24 -8 -14 0 -18 -5 -13 -17 4 -11 3 -14 -5 -9 -7 4 -12 5 -12 2 0 -3
16 -12 35 -20 19 -8 35 -20 35 -25 0 -6 7 -11 15 -11 8 0 15 -3 15 -6 0 -11
-28 -33 -34 -27 -3 4 -6 1 -6 -5 0 -6 -16 -16 -37 -23 -39 -12 -123 -68 -123
-81 0 -9 27 -15 87 -21 24 -2 40 -1 38 3 -3 4 2 13 10 20 15 12 16 10 40 -57
2 -7 11 -13 19 -13 11 0 12 -5 3 -25 -9 -19 -20 -25 -47 -26 -31 0 -27 -3 35
-24 39 -14 80 -25 93 -25 30 0 92 26 113 48 9 9 26 25 37 34 12 9 26 34 31 55
13 46 56 69 96 51 20 -9 25 -20 29 -77 18 -200 37 -299 60 -316 14 -11 13 -14
-5 -34 -12 -12 -25 -18 -32 -14 -22 14 -39 12 -33 -3 3 -8 2 -12 -3 -9 -14 8
-29 -24 -23 -48 4 -14 -7 -8 -38 21 -41 40 -68 50 -104 36 -28 -11 -17 -31 24
-48 36 -14 39 -18 30 -36 -6 -11 -17 -20 -25 -20 -8 0 -15 -5 -15 -11 0 -5 -4
-8 -9 -4 -14 8 -24 -32 -13 -51 8 -14 10 -14 25 1 12 12 17 13 17 3 0 -9 22
-14 83 -16 45 -2 86 -7 90 -11 12 -12 -69 -21 -102 -11 -18 5 -39 3 -62 -7
-18 -8 -59 -16 -89 -17 -30 -2 -68 -9 -84 -15 -16 -7 -35 -10 -42 -7 -14 5 -8
43 9 53 6 4 7 1 2 -8 -8 -12 -6 -12 8 0 9 7 17 22 17 33 0 10 6 21 14 24 15 6
11 34 -5 34 -4 0 -5 -8 -2 -17 6 -15 5 -16 -9 -3 -17 16 -14 28 14 75 11 19
18 50 18 82 0 28 4 62 9 76 7 18 6 24 -5 24 -8 0 -14 -6 -14 -14 0 -7 -5 -13
-11 -13 -16 0 -119 -69 -119 -79 0 -4 -12 -21 -27 -37 -16 -16 -28 -33 -28
-39 -1 -5 -7 -21 -14 -35 -20 -36 -14 -102 15 -167 14 -32 26 -70 26 -85 1
-16 5 -25 11 -21 6 4 8 -2 5 -15 -4 -15 -2 -19 8 -15 9 3 12 13 9 23 -4 11 2
26 13 37 10 10 22 26 25 36 7 18 55 24 73 8 5 -4 21 -11 37 -15 24 -6 28 -3
33 23 l6 30 77 -4 c42 -3 107 -9 144 -13 37 -5 70 -5 73 0 3 4 25 8 48 8 45 0
57 -13 48 -52 -3 -14 -14 -17 -55 -17 -127 2 -172 -1 -157 -11 8 -5 29 -10 45
-10 46 0 60 -13 44 -39 -11 -16 -24 -21 -59 -21 -62 0 -94 -18 -98 -55 -2 -17
-12 -38 -23 -48 -10 -10 -19 -21 -19 -24 0 -4 3 -4 6 0 3 3 14 -2 23 -11 28
-27 71 -54 141 -89 25 -13 34 -24 32 -36 -2 -10 -9 -16 -16 -14 -7 3 -17 -3
-24 -13 -6 -10 -22 -17 -36 -17 -14 0 -23 4 -20 9 3 5 -3 4 -15 -4 -12 -7 -21
-16 -21 -20 0 -4 -7 -5 -15 -2 -9 4 -15 0 -15 -7 0 -11 -3 -11 -10 1 -7 11
-10 11 -10 2 0 -7 -5 -10 -11 -6 -6 3 -30 7 -54 8 -34 1 -42 -2 -39 -14 3 -8
-1 -5 -7 8 -7 12 -21 23 -33 23 -12 1 -26 2 -32 3 -6 0 -24 16 -40 34 -28 31
-54 42 -54 22 0 -5 -8 -10 -18 -10 -10 0 -23 -5 -29 -11 -14 -14 -36 -1 -29
17 3 8 2 13 -2 12 -19 -5 -53 15 -48 28 4 10 2 12 -5 8 -7 -4 -21 4 -32 17
l-19 24 18 -30 c10 -16 23 -36 30 -42 7 -7 21 -23 31 -36 10 -13 33 -34 50
-47 18 -13 33 -30 33 -37 0 -7 10 -18 22 -24 32 -17 44 -31 51 -59 4 -14 25
-38 47 -54 22 -16 38 -31 36 -33 -5 -5 -66 19 -66 26 0 8 -44 31 -58 31 -3 0
5 -8 18 -17 14 -9 31 -25 38 -35 7 -10 20 -18 28 -18 20 0 28 -24 15 -49 -9
-16 -8 -22 6 -30 10 -6 14 -11 9 -11 -5 0 -2 -8 6 -17 18 -20 29 -83 16 -83
-5 0 -6 -4 -3 -10 3 -5 -1 -10 -9 -10 -8 0 -18 -4 -21 -10 -4 -6 1 -7 12 -4
15 5 15 4 3 -4 -8 -6 -28 -8 -45 -5 -28 5 -29 4 -10 -9 28 -20 143 -68 163
-68 9 -1 35 -9 57 -20 22 -10 66 -27 97 -37 81 -25 90 -46 84 -202 -3 -67 -2
-121 2 -121 11 0 52 92 52 116 0 11 3 24 7 27 3 4 5 34 4 68 -4 100 43 144
141 133 41 -4 63 -1 99 15 40 18 48 26 59 65 6 24 9 55 5 67 -18 65 -21 62 32
35 102 -52 134 -66 151 -66 9 -1 35 -19 57 -40 22 -22 43 -40 47 -40 5 0 8 -6
8 -13 0 -6 28 -23 63 -35 34 -13 80 -32 102 -42 22 -11 65 -30 95 -43 30 -14
75 -34 100 -45 80 -36 122 -52 139 -52 19 0 136 -77 226 -149 60 -48 74 -69
150 -236 15 -33 31 -68 36 -77 5 -10 9 -24 9 -32 0 -8 13 -41 30 -74 16 -33
35 -82 41 -108 6 -27 21 -78 34 -114 12 -36 30 -94 40 -130 9 -36 26 -92 36
-125 18 -62 36 -153 46 -235 2 -25 13 -67 23 -95 10 -27 26 -97 35 -155 37
-221 70 -369 88 -386 4 -4 7 12 7 35 0 23 6 57 14 76 13 29 13 35 0 46 -12 10
-13 9 -8 -4 3 -10 -2 -20 -15 -27 -20 -10 -29 -1 -14 14 5 4 8 11 8 14 1 4 6
17 13 29 7 14 11 53 10 100 -2 82 3 103 28 103 8 0 28 7 44 15 28 15 30 14 30
-4 0 -11 -6 -22 -12 -24 -8 -3 -5 -6 6 -6 14 -1 17 -7 13 -27 -3 -20 1 -27 19
-34 19 -8 24 -17 24 -44 0 -21 -6 -36 -15 -40 -23 -8 -18 -43 7 -49 24 -7 38
7 38 36 0 9 5 17 11 17 7 0 9 -11 6 -28 -22 -106 -26 -137 -17 -140 6 -2 10
-10 10 -18 0 -9 -4 -13 -9 -10 -4 3 -13 -6 -19 -19 -12 -26 -42 -25 -42 2 0 8
-4 12 -9 8 -5 -3 -13 0 -16 6 -5 7 1 9 16 7 17 -2 28 5 42 30 21 37 17 52 -9
31 -16 -13 -16 -12 -3 9 8 12 17 22 21 22 5 0 8 4 8 9 0 5 -15 8 -33 7 -28 -1
-32 -5 -35 -31 -2 -17 -8 -34 -14 -40 -7 -7 -8 5 -4 37 8 53 3 70 -19 62 -19
-8 -65 -98 -64 -126 1 -21 1 -21 11 5 10 29 29 35 46 15 32 -41 37 -252 6
-275 -16 -11 -16 -20 1 -118 10 -58 22 -105 26 -105 4 0 13 8 18 18 6 9 11 12
11 6 0 -6 -9 -23 -20 -37 -24 -30 -26 -70 -5 -91 8 -8 15 -21 15 -28 0 -10 -3
-9 -10 2 -8 12 -10 9 -10 -13 0 -36 31 -147 41 -147 5 0 6 6 3 14 -3 7 5 34
17 60 16 36 20 56 15 90 -5 34 -2 55 12 88 11 24 25 61 32 83 11 37 30 238 34
360 0 28 6 53 11 57 10 7 11 11 14 43 0 8 8 15 17 15 13 0 15 -8 11 -45 -4
-28 -2 -45 4 -45 7 0 8 -15 4 -40 -5 -31 -4 -40 7 -38 10 2 14 -15 16 -70 2
-43 7 -70 12 -67 6 4 10 22 10 41 0 19 5 34 10 34 6 0 10 -26 10 -58 0 -33 3
-95 6 -138 5 -65 4 -77 -7 -66 -21 19 -29 14 -29 -19 0 -17 4 -28 10 -24 6 3
10 2 10 -4 0 -5 -4 -12 -9 -15 -17 -11 -19 -43 -3 -42 10 1 19 -12 25 -37 7
-31 6 -42 -8 -56 -9 -11 -12 -20 -6 -22 6 -2 12 -49 15 -104 3 -55 8 -160 12
-232 5 -100 4 -133 -5 -133 -7 0 -9 -4 -6 -10 3 -5 -1 -20 -9 -32 -9 -12 -16
-20 -17 -18 0 3 -2 16 -4 30 -2 14 -8 59 -15 100 -12 82 -29 347 -37 562 -4
113 -7 138 -19 138 -18 0 -44 -58 -44 -97 0 -15 -7 -37 -15 -47 -10 -14 -15
-45 -15 -102 0 -86 -6 -118 -21 -108 -5 3 -9 -7 -9 -21 0 -15 -5 -36 -11 -47
-9 -16 -8 -19 2 -13 9 6 10 2 4 -16 -4 -13 -9 -47 -10 -75 -2 -29 -11 -63 -20
-78 -19 -28 -22 -115 -7 -157 16 -42 25 -129 13 -129 -12 0 -43 55 -35 63 3 3
1 14 -6 24 -10 16 -10 15 -4 -6 6 -22 4 -23 -34 -16 -30 5 -43 2 -56 -10 -15
-15 -16 -14 -16 14 0 24 4 31 19 31 10 0 21 7 25 15 6 17 -5 20 -20 5 -5 -5
-15 -6 -23 -1 -18 11 -18 145 0 167 6 8 9 17 5 21 -14 15 -222 -20 -296 -49
-41 -16 -79 -34 -85 -39 -5 -5 -16 -9 -25 -9 -8 0 -43 -18 -78 -40 -34 -22
-67 -40 -73 -40 -9 0 -129 -57 -202 -97 -42 -22 -43 -10 -2 26 20 17 33 32 30
32 -3 1 -9 3 -15 4 -5 1 -15 3 -21 4 -5 0 -7 6 -4 11 3 6 -1 13 -9 16 -23 9
-20 30 14 79 37 54 71 78 133 95 26 7 45 15 43 17 -7 7 -169 -27 -183 -38 -16
-14 -28 8 -13 26 15 18 6 108 -14 136 -9 13 -16 36 -16 50 0 18 -6 29 -17 32
-10 2 32 5 92 6 94 1 226 16 172 20 -15 1 -15 4 -5 21 7 11 17 20 22 20 4 0
23 12 41 27 17 16 40 33 51 40 18 11 18 12 -4 9 -13 -1 -28 -9 -33 -17 -5 -8
-9 -10 -9 -5 0 5 -7 3 -15 -4 -8 -7 -15 -9 -15 -5 0 15 -38 -27 -50 -55 -6
-15 -20 -30 -31 -33 -10 -3 -17 -2 -14 3 3 4 -1 13 -9 19 -10 8 -26 7 -62 -4
-27 -8 -65 -15 -84 -15 -33 1 -34 1 -15 16 11 8 24 13 31 10 15 -6 13 27 -3
39 -11 8 -11 21 -2 70 6 33 14 62 18 65 4 3 13 25 19 50 11 46 1 70 -23 50 -6
-5 -21 -7 -33 -3 -13 3 -22 1 -22 -6 0 -6 -7 -11 -15 -11 -8 0 -15 -9 -15 -20
0 -18 -10 -24 -32 -21 -4 0 -10 -21 -13 -47 -3 -26 -10 -67 -15 -92 -4 -25
-14 -79 -20 -120 -14 -87 -30 -151 -42 -164 -15 -18 -8 -64 21 -135 16 -39 46
-140 66 -224 20 -83 45 -183 54 -222 l18 -70 1386 -3 1387 -2 0 1466 c0 974
-3 1463 -10 1459 -5 -3 -10 -12 -10 -19 0 -9 -10 -12 -27 -10 -16 2 -21 1 -13
-3 25 -11 41 -31 30 -38 -6 -4 -8 -10 -5 -15 3 -5 -3 -13 -12 -19 -10 -5 -15
-13 -11 -17 10 -9 -11 -34 -28 -34 -8 0 -14 9 -14 20 0 11 -4 20 -10 20 -5 0
-10 16 -10 35 0 24 5 35 15 35 11 0 12 5 5 24 -6 18 -5 28 6 36 7 7 14 19 14
26 0 8 7 14 16 14 8 0 13 -4 9 -9 -3 -6 4 -8 15 -6 13 2 20 -1 20 -11 0 -8 5
-12 10 -9 6 4 10 62 10 143 -1 122 -2 135 -15 118 -14 -19 -16 -18 -45 13 -17
17 -28 36 -25 41 4 6 10 8 15 5 5 -3 15 3 22 15 7 11 21 20 30 20 10 0 18 7
18 16 0 9 -5 12 -12 8 -8 -5 -7 0 2 11 14 17 13 18 -12 12 -14 -4 -33 -10 -42
-13 -9 -3 -16 -1 -16 5 0 6 -7 11 -15 11 -30 0 -15 40 25 66 33 22 43 24 55
14 13 -11 15 -7 14 31 -2 30 -3 35 -6 17 -2 -16 -11 -28 -18 -28 -9 0 -12 6
-9 18 4 12 0 10 -13 -6 l-19 -23 -24 26 c-18 19 -21 28 -12 37 7 7 12 9 12 5
0 -4 13 6 30 23 36 37 54 39 46 5 -4 -14 -2 -25 4 -25 5 0 10 16 10 36 0 31
-3 36 -20 31 -11 -3 -20 -2 -20 2 0 4 -14 5 -31 3 -20 -3 -34 0 -40 9 -13 21
-11 39 5 39 8 0 16 6 18 12 3 7 13 13 24 13 32 0 32 53 -1 79 l-27 21 21 27
c26 33 26 43 1 75 -13 16 -17 30 -11 37 13 16 -5 56 -25 56 -14 0 -15 7 -10
39 5 36 -7 67 -16 39 -3 -7 -14 -9 -30 -5 -32 8 -32 41 1 66 l24 18 -27 7
c-17 4 -26 13 -26 26 0 19 -10 24 -38 21 -8 -1 -16 7 -19 17 -3 13 -11 18 -24
15 -29 -8 -38 27 -11 45 25 17 29 32 7 32 -9 0 -15 9 -15 21 0 15 -4 19 -16
15 -9 -3 -20 -6 -25 -6 -5 0 -9 -7 -9 -15 0 -8 -5 -15 -10 -15 -6 0 -8 11 -4
27 4 15 7 41 7 58 0 32 22 65 44 65 25 0 13 28 -16 33 -40 8 -47 42 -14 70 40
35 63 40 65 14 2 -29 1 -37 -3 -67 -3 -15 1 -25 9 -25 7 0 17 -7 22 -15 8 -13
10 -12 10 4 0 18 1 18 18 3 10 -10 28 -17 40 -17 11 0 23 -4 27 -9 3 -6 15 -8
26 -6 18 4 20 1 15 -20 -3 -13 -1 -27 4 -30 6 -4 10 -14 8 -23 -1 -10 1 -23 6
-30 5 -8 -1 -21 -16 -35 -20 -18 -23 -30 -20 -65 3 -35 7 -41 18 -31 20 16 18
-1 -3 -23 -15 -17 -15 -21 5 -61 12 -23 31 -50 43 -60 15 -13 20 -26 16 -45
-6 -32 1 -52 18 -52 7 0 16 -6 18 -12 3 -7 6 33 6 90 1 78 -2 104 -13 108 -7
3 -19 23 -26 44 -11 34 -11 42 2 57 9 11 16 37 16 63 1 24 6 46 11 48 8 3 11
555 11 1838 l0 1834 -4000 0 -4000 0 0 -2255z m5647 1449 c-3 -3 -12 -4 -19
-1 -8 3 -5 6 6 6 11 1 17 -2 13 -5z m-1677 -564 c0 -5 -7 -10 -16 -10 -8 0
-12 5 -9 10 3 6 10 10 16 10 5 0 9 -4 9 -10z m-190 -53 c0 -2 -10 -12 -22 -23
l-23 -19 19 23 c18 21 26 27 26 19z m2390 -71 c0 -3 -4 -8 -10 -11 -5 -3 -10
-1 -10 4 0 6 5 11 10 11 6 0 10 -2 10 -4z m44 -102 c23 -9 20 -24 -4 -24 -11
0 -20 7 -20 15 0 17 2 18 24 9z m-542 -39 c3 -16 1 -25 -7 -25 -16 0 -26 25
-19 45 8 20 21 11 26 -20z m666 8 c2 -8 -5 -13 -17 -13 -12 0 -21 6 -21 16 0
18 31 15 38 -3z m-238 -13 c0 -5 -4 -10 -9 -10 -5 0 -13 -9 -16 -20 -8 -24
-21 -26 -29 -4 -4 10 1 22 11 30 21 16 43 18 43 4z m168 -32 c-3 -26 -47 -36
-88 -19 -24 10 -24 10 6 10 19 1 34 7 38 16 3 8 15 15 26 15 16 0 21 -5 18
-22z m520 -46 c2 -7 -2 -12 -8 -12 -12 0 -40 24 -40 34 0 10 44 -11 48 -22z
m-430 -10 c9 -6 10 -15 3 -33 l-10 -24 0 27 c-1 14 -7 29 -13 31 -7 3 -8 6 -3
6 6 0 16 -3 23 -7z m-558 -198 c-7 -7 -16 -11 -21 -8 -15 9 -10 49 9 72 l17
21 3 -35 c2 -19 -2 -42 -8 -50z m587 59 c4 -11 -1 -21 -15 -31 l-21 -14 22
-30 c16 -22 18 -32 9 -35 -6 -3 -9 -9 -6 -15 8 -12 -16 -29 -29 -21 -4 2 -3
11 4 19 9 11 9 18 -3 32 -8 9 -18 24 -21 33 -3 9 -19 23 -35 30 -25 11 -29 17
-21 31 13 25 107 26 116 1z m-418 -69 c21 -46 -28 -73 -72 -40 -16 13 -16 15
13 40 39 32 44 32 59 0z m331 -1 c0 -13 -3 -13 -15 -3 -8 7 -12 16 -9 21 8 13
24 1 24 -18z m-250 -17 c0 -5 -7 -3 -15 4 -8 7 -12 17 -9 22 7 10 24 -9 24
-26z m418 22 c14 -14 16 -28 2 -28 -5 0 -14 9 -20 20 -12 22 -1 27 18 8z
m-718 -8 c0 -5 -4 -10 -10 -10 -5 0 -10 5 -10 10 0 6 5 10 10 10 6 0 10 -4 10
-10z m24 -60 c-39 -42 -84 -55 -84 -23 0 24 40 63 66 63 12 0 28 7 35 17 13
15 14 15 17 0 2 -9 -13 -35 -34 -57z m-294 16 c0 -15 -7 -26 -19 -29 -28 -7
-32 2 -15 35 17 32 34 29 34 -6z m187 8 c5 -15 -54 -37 -63 -23 -7 13 26 39
45 36 8 -1 16 -7 18 -13z m-325 -6 c-6 -7 -24 -21 -41 -31 -26 -15 -31 -16
-31 -3 0 18 38 46 63 46 15 0 17 -3 9 -12z m728 -13 c0 -8 -6 -15 -14 -15 -17
0 -28 14 -19 24 12 12 33 6 33 -9z m-190 -9 c0 -8 -4 -17 -9 -21 -12 -7 -24
12 -16 25 9 15 25 12 25 -4z m-72 -23 c2 -8 -5 -13 -17 -13 -12 0 -21 6 -21
16 0 18 31 15 38 -3z m42 -33 c0 -5 -9 -10 -20 -10 -11 0 -20 5 -20 10 0 6 9
10 20 10 11 0 20 -4 20 -10z m457 -36 c-2 -13 0 -24 4 -24 5 0 9 -14 9 -30 0
-18 6 -33 15 -36 8 -4 15 -16 15 -28 0 -15 9 -27 26 -35 32 -14 27 -35 -10
-39 -23 -3 -29 2 -39 27 -13 34 -28 39 -47 16 -10 -12 -10 -18 -1 -29 10 -12
8 -17 -8 -25 -32 -18 -81 -14 -81 6 0 15 -2 15 -14 -3 -8 -11 -16 -31 -18 -44
-2 -17 -9 -25 -21 -24 -19 2 -19 2 -11 -20 5 -14 8 -14 21 -1 24 25 43 18 43
-15 0 -23 -6 -33 -24 -40 -22 -8 -56 -50 -40 -50 12 0 64 34 64 43 0 4 5 5 10
2 6 -3 10 -17 10 -30 0 -13 5 -25 11 -27 6 -2 14 -19 18 -38 3 -18 12 -35 20
-38 10 -3 11 0 2 16 -15 28 -14 32 9 32 11 0 20 6 20 14 0 7 9 16 20 19 13 3
20 0 20 -9 0 -8 5 -14 10 -14 6 0 10 -7 10 -15 0 -8 6 -24 13 -36 10 -17 9
-22 -5 -30 -10 -6 -18 -19 -18 -29 0 -11 -4 -20 -8 -20 -20 0 -50 -40 -46 -62
2 -13 2 -17 -2 -10 -8 16 -34 15 -34 -2 0 -7 11 -21 25 -30 14 -9 24 -24 23
-34 -3 -45 2 -71 15 -66 8 3 20 -2 27 -11 7 -8 10 -15 7 -15 -3 0 1 -12 8 -27
14 -26 13 -28 -13 -39 -17 -8 -21 -13 -11 -13 11 -1 17 -9 16 -23 0 -13 3 -30
7 -39 5 -12 1 -18 -17 -23 -16 -3 -27 -15 -31 -31 -4 -14 -11 -23 -16 -20 -18
11 -10 -26 12 -55 21 -30 18 -54 -4 -32 -19 19 -28 14 -28 -18 0 -35 13 -38
37 -10 10 11 24 20 33 20 11 -1 9 -5 -7 -19 -15 -13 -20 -25 -16 -40 5 -19 2
-22 -17 -19 -36 5 -35 -18 2 -33 l33 -13 -30 -4 c-16 -2 -34 -8 -40 -14 -7 -8
-6 -9 3 -4 10 6 11 -2 6 -32 -4 -25 -2 -42 5 -46 22 -14 10 -31 -32 -48 -23
-10 -46 -18 -51 -18 -15 0 4 104 25 133 26 36 19 44 -20 24 -17 -9 -31 -12
-31 -8 0 18 33 50 58 56 l29 6 -18 70 c-10 39 -16 83 -15 97 2 15 -1 37 -5 50
-6 14 -5 31 1 42 7 13 7 21 0 25 -5 3 -10 15 -10 25 0 10 -9 21 -20 25 -15 5
-19 15 -18 43 0 20 5 42 10 49 7 8 3 10 -13 6 -15 -4 -20 -3 -15 5 4 7 3 12
-3 12 -16 0 -24 46 -12 68 8 16 7 21 -5 26 -8 3 -12 11 -9 17 4 6 13 8 21 5
27 -10 44 5 44 39 0 19 -4 36 -9 39 -4 3 -11 24 -15 46 -3 22 -11 40 -16 40
-6 0 -10 8 -10 18 0 9 -9 23 -20 30 -11 7 -20 17 -20 24 0 6 -8 20 -17 30 -15
17 -15 21 -3 29 10 6 12 11 4 17 -6 4 -14 15 -17 25 -4 11 -16 21 -27 24 -22
6 -26 18 -10 28 6 3 10 14 9 23 0 11 -3 12 -6 5 -2 -7 -13 -13 -23 -13 -10 0
-27 -10 -37 -23 -23 -29 -61 -24 -69 8 -3 13 -3 29 1 34 3 6 0 11 -8 11 -8 0
-19 15 -25 33 -10 30 -11 31 -17 10 -4 -13 -15 -23 -26 -23 -24 0 -24 18 -2
42 16 18 16 18 0 12 -24 -9 -22 20 4 63 17 27 24 31 35 22 19 -15 18 -38 -3
-61 -9 -11 -11 -18 -5 -18 7 0 12 6 12 13 0 9 3 9 9 -1 6 -11 26 -12 77 -8 44
3 64 2 54 -4 -8 -5 -11 -12 -7 -16 10 -11 37 16 37 37 0 11 5 19 10 19 17 0
23 -29 10 -45 -10 -12 -9 -16 4 -21 9 -3 16 -14 16 -24 0 -11 5 -22 10 -25 6
-3 10 -1 10 5 0 14 30 45 52 53 19 7 14 46 -8 54 -7 2 -10 11 -7 20 5 12 7 12
14 1 6 -10 13 -10 27 -2 10 7 35 10 55 8 33 -3 37 0 37 19 0 26 19 49 33 40 5
-3 7 -16 4 -29z m66 -57 c16 -11 16 -14 3 -32 -16 -20 -16 -20 -22 3 -3 12
-10 22 -15 22 -5 0 -9 5 -9 10 0 14 23 13 43 -3z m-3042 -30 c-10 -9 -11 -8
-5 6 3 10 9 15 12 12 3 -3 0 -11 -7 -18z m3246 7 c2 -5 -6 -15 -17 -22 -17
-10 -20 -10 -20 6 0 30 28 43 37 16z m-837 -29 c10 -12 10 -15 -4 -15 -9 0
-16 7 -16 15 0 8 2 15 4 15 2 0 9 -7 16 -15z m870 -15 c0 -5 -4 -10 -10 -10
-5 0 -10 5 -10 10 0 6 5 10 10 10 6 0 10 -4 10 -10z m38 -57 c-24 -49 -32 -63
-40 -63 -4 0 -8 5 -8 10 0 6 5 10 11 10 5 0 7 5 4 10 -7 12 12 40 27 40 5 0 8
-3 6 -7z m-182 -19 c-3 -9 -6 -18 -6 -20 0 -2 -7 -4 -15 -4 -18 0 -19 12 -3
28 17 17 31 15 24 -4z m-1832 -43 c15 -29 27 -123 32 -251 2 -47 8 -110 13
-140 38 -208 36 -285 -11 -490 -10 -47 -20 -98 -20 -113 -1 -32 -8 -39 -28
-26 -10 5 -11 9 -3 9 9 0 9 8 1 32 -9 24 -8 33 0 36 18 6 14 42 -3 42 -9 0
-18 12 -21 30 -4 17 -10 30 -15 30 -5 0 -9 8 -9 18 0 11 -9 27 -20 37 -16 14
-23 15 -34 6 -8 -7 -20 -10 -25 -6 -7 3 -8 0 -5 -9 4 -11 0 -16 -10 -16 -9 0
-17 8 -17 18 -1 15 -2 14 -6 -2 -4 -15 -7 -16 -14 -5 -7 11 -9 10 -9 -4 0 -10
-4 -16 -10 -12 -5 3 -6 13 -3 23 3 9 3 14 -2 10 -7 -7 -35 14 -35 26 0 10 -53
61 -61 58 -5 -1 -9 4 -9 12 0 8 -7 16 -15 20 -25 9 -18 45 11 52 33 9 126 -3
152 -19 7 -5 12 -3 12 4 0 8 7 6 19 -5 18 -17 20 -17 30 1 10 17 11 17 17 -4
4 -14 11 -20 22 -16 10 4 13 2 8 -5 -4 -7 -2 -12 3 -12 6 0 11 7 11 15 0 9 11
21 25 27 14 6 25 16 25 22 0 6 5 4 10 -4 7 -11 10 10 9 69 -2 84 -13 144 -33
170 -17 22 -36 84 -36 118 0 17 -4 35 -10 38 -5 3 -10 11 -10 17 0 7 5 7 14
-1 12 -10 13 -5 4 31 -9 40 -3 192 9 211 7 11 32 -11 47 -42z m1951 -3 c4 -13
16 -30 28 -39 23 -18 16 -39 -14 -39 -11 0 -19 7 -19 17 0 20 -28 53 -47 53
-16 0 -17 17 0 23 27 12 46 6 52 -15z m361 -30 c5 0 17 -13 27 -29 17 -26 17
-29 3 -29 -9 0 -16 -8 -16 -17 0 -14 -4 -13 -25 7 -13 13 -27 32 -31 42 -7 23
15 55 26 38 4 -7 11 -12 16 -12z m-698 -20 c-3 -7 -12 -14 -21 -16 -12 -2 -15
1 -11 12 7 19 38 22 32 4z m282 -40 c0 -6 -6 -8 -13 -5 -9 3 -12 -5 -9 -29 5
-42 -13 -45 -22 -4 -7 38 12 74 31 58 7 -6 13 -15 13 -20z m45 -28 c-3 -5 -12
-10 -18 -10 -7 0 -6 4 3 10 19 12 23 12 15 0z m-105 -59 c0 -6 -4 -13 -10 -16
-5 -3 -10 1 -10 9 0 9 5 16 10 16 6 0 10 -4 10 -9z m-915 -89 c-8 -8 -33 17
-39 40 -4 19 -2 18 19 -7 14 -15 23 -30 20 -33z m279 12 c4 -9 4 -19 1 -22 -6
-6 -35 18 -35 29 0 16 28 10 34 -7z m776 7 c0 -5 -7 -14 -15 -21 -8 -7 -15
-10 -15 -7 0 3 -3 12 -6 21 -4 12 0 16 15 16 12 0 21 -4 21 -9z m-1757 -45 c4
-10 0 -12 -15 -8 -15 4 -17 7 -6 13 17 11 15 11 21 -5z m417 -6 c0 -5 -5 -10
-11 -10 -5 0 -7 5 -4 10 3 6 8 10 11 10 2 0 4 -4 4 -10z m1180 -10 c0 -5 -4
-10 -10 -10 -5 0 -10 5 -10 10 0 6 5 10 10 10 6 0 10 -4 10 -10z m-1638 -54
c-6 -53 2 -65 22 -31 l17 30 -6 -28 c-3 -16 -1 -63 5 -106 10 -71 8 -84 -15
-164 -14 -48 -25 -92 -25 -98 0 -5 -18 -43 -41 -84 -35 -64 -43 -73 -59 -65
-19 10 -34 50 -19 50 5 0 9 -6 9 -12 1 -35 22 31 25 77 3 57 18 95 39 95 21 0
43 33 49 75 8 51 0 83 -24 90 -10 4 -19 13 -19 22 0 8 -9 17 -19 20 -11 3 -22
12 -25 20 -3 8 -1 11 4 8 6 -3 10 2 10 12 0 10 14 38 30 62 17 24 30 48 30 53
0 4 4 8 8 8 4 0 6 -15 4 -34z m1058 -36 c0 -5 -4 -10 -10 -10 -5 0 -10 5 -10
10 0 6 5 10 10 10 6 0 10 -4 10 -10z m980 -27 c0 -5 -5 -15 -10 -23 -8 -12
-10 -11 -10 8 0 12 5 22 10 22 6 0 10 -3 10 -7z m-27 -46 c4 3 7 1 7 -5 0 -7
-4 -12 -10 -12 -5 0 -10 -11 -10 -25 0 -18 -5 -25 -20 -25 -23 0 -25 17 -8 54
8 18 15 23 23 16 7 -5 15 -7 18 -3z m-144 -29 c-6 -22 -6 -34 2 -37 6 -2 5 -9
-4 -20 -8 -9 -18 -31 -22 -49 -6 -31 -5 -34 34 -50 42 -17 55 -42 23 -42 -10
0 -27 -7 -38 -14 -17 -13 -22 -31 -29 -108 -10 -114 -12 -141 -25 -243 -6 -44
-14 -112 -18 -150 -5 -39 -14 -80 -20 -90 -14 -23 -8 149 9 273 8 57 8 77 -2
89 -11 12 -10 17 4 24 12 7 16 22 15 50 -1 43 -15 60 -29 38 -7 -11 -9 -11 -9
2 0 22 -67 32 -75 11 -7 -18 2 -32 22 -32 11 0 13 -5 8 -17 -5 -10 -10 -33
-13 -50 -2 -18 -8 -33 -12 -33 -5 0 -6 9 -3 20 8 29 -20 51 -56 44 -24 -5 -31
-3 -31 9 0 9 10 17 23 19 17 2 23 11 25 38 5 47 11 51 65 41 l46 -8 36 45 c40
51 40 67 2 67 -33 -1 -38 32 -6 43 11 5 20 11 20 15 -2 13 10 62 20 79 5 10 9
24 9 31 0 14 19 37 31 37 4 0 3 -15 -2 -32z m263 -4 c-4 -23 -50 -66 -63 -59
-18 12 -9 44 19 64 31 24 48 22 44 -5z m-1625 -6 c-3 -8 -6 -5 -6 6 -1 11 2
17 5 13 3 -3 4 -12 1 -19z m1654 -31 c-8 -8 -11 -3 -11 19 1 25 2 27 11 11 8
-14 8 -22 0 -30z m-1161 20 c0 -25 110 -103 133 -94 9 3 11 -19 9 -84 -3 -89
-4 -89 -28 -83 -16 4 -24 2 -24 -7 0 -10 -3 -10 -12 -1 -8 8 -8 15 1 25 6 8 9
21 5 30 -7 19 16 34 26 16 5 -7 6 -17 4 -21 -3 -4 0 -8 5 -8 14 0 14 37 1 45
-5 3 -10 22 -10 42 0 26 -5 36 -20 40 -11 3 -20 9 -20 14 0 5 -7 9 -15 9 -21
0 -88 68 -80 80 9 14 25 12 25 -3z m-509 -31 c12 -45 -1 -51 -27 -12 -30 43
-30 48 -2 44 14 -2 24 -13 29 -32z m258 -18 c25 -28 31 -30 45 -19 14 12 16
11 16 -5 1 -30 40 -69 99 -97 30 -15 56 -26 57 -24 2 2 -3 27 -11 57 -16 59
-20 130 -7 115 4 -6 14 -32 21 -60 32 -131 43 -156 80 -190 21 -20 44 -46 51
-60 16 -30 30 -23 30 16 0 16 5 29 10 29 12 0 13 -43 1 -55 -10 -12 4 -55 18
-55 5 0 12 -12 15 -26 5 -19 11 -24 26 -19 11 4 20 3 20 -2 0 -4 3 -17 6 -28
4 -17 -2 -23 -30 -33 -23 -8 -38 -22 -41 -35 -4 -14 -18 -26 -40 -33 -29 -9
-33 -9 -24 2 6 8 19 14 28 14 12 1 11 5 -7 20 -28 23 -23 36 18 45 37 8 39 21
5 29 -22 6 -24 9 -15 27 10 18 9 19 -17 14 -25 -6 -26 -5 -11 8 10 8 15 17 12
20 -13 13 -34 -23 -34 -57 0 -20 -4 -36 -9 -36 -16 0 -23 38 -12 59 16 29 14
39 -10 46 -20 7 -20 8 -3 27 16 16 16 21 4 28 -18 12 -40 -14 -40 -46 0 -24
-16 -41 -28 -29 -4 3 3 24 15 44 19 33 20 42 10 65 -7 14 -18 26 -24 26 -16 0
-17 12 -1 28 8 8 8 12 1 12 -6 0 -16 -7 -24 -16 -12 -14 -14 -14 -26 3 -8 10
-17 16 -21 14 -4 -2 -13 8 -20 23 -8 15 -21 30 -30 33 -10 4 -30 21 -47 38
-16 17 -39 34 -49 38 -10 4 -16 10 -13 13 2 3 -14 23 -37 45 -37 35 -38 38
-14 29 15 -5 41 -24 57 -42z m-79 28 c0 -11 -19 -15 -25 -6 -3 5 1 10 9 10 9
0 16 -2 16 -4z m1535 -6 c3 -5 1 -10 -4 -10 -6 0 -11 5 -11 10 0 6 2 10 4 10
3 0 8 -4 11 -10z m-205 -35 c0 -14 -4 -25 -10 -25 -5 0 -10 11 -10 25 0 14 5
25 10 25 6 0 10 -11 10 -25z m-2056 -11 c7 -28 0 -64 -14 -64 -5 0 -8 20 -8
45 0 49 12 60 22 19z m275 -50 c-14 -18 -24 -11 -15 11 3 9 11 13 16 10 8 -5
7 -11 -1 -21z m-852 -69 c8 -22 3 -23 -36 -13 -26 7 -31 12 -20 19 22 14 49
11 56 -6z m2423 7 c0 -15 -38 -44 -49 -37 -18 10 -13 25 12 35 29 11 37 12 37
2z m-1650 -11 c0 -5 -7 -11 -15 -15 -15 -5 -20 5 -8 17 9 10 23 9 23 -2z
m1080 -91 c-7 -4 -9 -13 -6 -19 4 -6 2 -11 -3 -11 -15 0 -14 33 1 48 9 9 14
10 17 1 2 -6 -2 -15 -9 -19z m19 -55 c-14 -14 -19 -14 -50 -1 l-34 15 50 1
c44 0 48 -2 34 -15z m776 -35 c-19 -21 -45 -27 -45 -10 0 6 9 19 21 31 29 29
51 9 24 -21z m-55 9 c0 -6 -4 -7 -10 -4 -5 3 -10 11 -10 16 0 6 5 7 10 4 6 -3
10 -11 10 -16z m-2170 -23 c0 -3 -4 -8 -10 -11 -5 -3 -10 -1 -10 4 0 6 5 11
10 11 6 0 10 -2 10 -4z m1831 -31 c0 -5 -7 -12 -16 -13 -23 -5 -47 6 -40 19 8
13 56 8 56 -6z m255 0 c-22 -17 -36 -19 -36 -7 0 14 12 22 34 22 21 -1 21 -1
2 -15z m1129 -13 c-8 -8 -25 10 -19 20 4 6 9 5 15 -3 4 -7 6 -15 4 -17z
m-1433 -45 c-12 -6 -25 -7 -29 -3 -11 10 18 25 35 18 13 -4 11 -8 -6 -15z
m1296 -39 c5 8 25 14 43 15 28 2 35 -2 37 -20 4 -28 -25 -32 -30 -6 -2 13 -12
5 -37 -30 -19 -26 -36 -45 -38 -43 -3 2 -7 19 -9 38 -3 18 -7 38 -9 45 -6 20
7 23 21 5 11 -14 15 -14 22 -4z m-3058 3 c0 -6 -4 -13 -10 -16 -5 -3 -10 1
-10 9 0 9 5 16 10 16 6 0 10 -4 10 -9z m2035 -11 c-3 -5 -10 -10 -16 -10 -5 0
-9 5 -9 10 0 6 7 10 16 10 8 0 12 -4 9 -10z m-259 -15 c4 -8 4 -21 1 -29 -8
-21 -47 -8 -47 16 0 10 5 16 10 13 6 -3 10 -1 10 4 0 16 20 13 26 -4z m-326
-3 c0 -5 11 -14 25 -20 31 -14 35 -52 5 -52 -15 0 -20 7 -20 25 0 14 -3 24 -7
24 -27 -4 -42 3 -37 16 6 16 34 21 34 7z m420 -12 c0 -5 -8 -10 -17 -10 -15 0
-16 2 -3 10 19 12 20 12 20 0z m-616 -25 c-4 -8 -11 -15 -16 -15 -6 0 -8 -9
-5 -20 6 -25 -27 -28 -50 -5 -18 19 -17 20 27 39 44 19 51 19 44 1z m51 -36
c-10 -15 -25 -10 -19 6 4 8 10 12 15 9 5 -3 7 -10 4 -15z m57 5 c9 -3 19 -22
23 -42 4 -20 13 -49 21 -64 8 -15 14 -36 14 -48 0 -11 4 -20 8 -20 5 0 17 -18
27 -40 10 -22 24 -45 32 -51 8 -7 13 -32 13 -61 0 -45 23 -159 37 -182 15 -24
22 31 13 105 -6 46 -12 97 -14 113 l-3 28 18 -23 c10 -13 19 -28 19 -33 0 -18
44 -101 59 -114 9 -8 11 -11 4 -8 -7 4 -9 -1 -6 -14 4 -14 -1 -22 -18 -29 -14
-6 -17 -10 -9 -10 16 -1 50 -35 50 -50 0 -4 9 -16 20 -26 25 -23 25 -35 1 -35
-13 0 -21 8 -23 23 -2 17 -9 22 -30 22 -16 -1 -28 4 -28 10 0 5 -5 3 -10 -5
-6 -10 -10 -11 -10 -2 0 6 -7 12 -16 12 -9 0 -14 -8 -13 -17 1 -10 1 -25 0
-33 -1 -13 -3 -13 -10 -1 -5 8 -7 25 -5 38 3 16 0 23 -12 23 -13 0 -15 -7 -10
-34 6 -32 5 -34 -19 -32 -29 1 -31 8 -9 31 17 17 11 49 -8 43 -7 -3 -16 -19
-20 -37 -8 -31 -28 -35 -28 -5 0 8 -5 14 -11 14 -6 0 -1 14 11 31 14 18 28 28
37 25 8 -3 21 1 30 9 13 14 13 23 -1 83 -8 37 -18 81 -21 99 -4 17 -15 41 -26
54 -10 12 -19 30 -19 40 0 10 -11 35 -25 55 -14 20 -25 50 -25 67 0 24 -2 27
-14 18 -12 -10 -17 -6 -25 26 -14 50 -14 66 2 59 6 -3 19 -9 29 -12z m179 -21
c12 -14 12 -16 0 -8 -10 6 -12 4 -7 -4 5 -7 14 -10 22 -7 10 4 11 0 2 -19 -6
-13 -16 -21 -23 -19 -17 7 -55 -26 -55 -47 0 -12 -6 -16 -20 -12 -26 7 -26 37
1 64 11 11 18 27 15 35 -3 8 1 14 9 14 8 0 15 5 15 10 0 16 26 12 41 -7z m101
-15 c-9 -9 -15 -9 -24 0 -9 9 -7 12 12 12 19 0 21 -3 12 -12z m618 -22 c0 -19
-4 -38 -10 -41 -5 -3 -10 1 -10 9 0 9 -5 16 -11 16 -8 0 -8 4 1 15 6 8 9 19 5
25 -3 5 1 10 9 10 12 0 16 -10 16 -34z m-416 -1 c-4 -8 -12 -15 -20 -15 -8 0
-11 6 -8 15 4 8 12 15 20 15 8 0 11 -6 8 -15z m-200 -31 c3 -9 6 -27 6 -40 0
-20 -5 -24 -29 -24 -30 0 -61 22 -61 43 0 13 35 34 61 36 9 0 20 -6 23 -15z
m1706 -23 c0 -5 -11 -8 -25 -8 -14 0 -28 3 -31 8 -3 5 9 9 25 9 17 0 31 -4 31
-9z m-1775 -41 c10 -11 24 -20 31 -20 7 0 16 -9 19 -20 7 -23 35 -27 35 -6 0
13 20 26 41 26 5 0 9 -23 9 -51 0 -51 0 -51 28 -44 15 3 44 23 65 43 37 36 37
36 37 11 0 -17 -11 -33 -31 -48 -17 -13 -28 -25 -25 -28 3 -3 12 0 20 6 22 19
31 -7 11 -29 -13 -15 -15 -23 -7 -33 16 -19 -26 -77 -55 -77 -13 0 -23 -5 -23
-10 0 -14 -60 18 -67 36 -3 7 -11 14 -19 14 -7 0 -19 10 -25 23 -7 12 -19 27
-27 33 -17 12 -8 34 13 34 10 0 13 10 11 33 -6 57 -17 78 -40 75 -15 -2 -20 2
-18 15 2 10 -3 17 -13 17 -9 0 -13 5 -10 10 9 15 20 12 40 -10z m249 -19 c3
-5 -1 -11 -9 -15 -8 -3 -15 -13 -15 -22 0 -13 -3 -14 -15 -4 -24 20 -19 50 9
50 14 0 27 -4 30 -9z m1196 -26 c0 -25 -14 -34 -24 -16 -8 12 3 41 15 41 5 0
9 -11 9 -25z m-1064 -107 c-7 -156 -33 -284 -53 -265 -7 8 20 257 28 257 3 0
9 27 13 60 11 98 18 69 12 -52z m1369 52 c3 -5 1 -10 -4 -10 -6 0 -11 5 -11
10 0 6 2 10 4 10 3 0 8 -4 11 -10z m-4385 -55 c-7 -9 -15 -13 -17 -11 -7 7 7
26 19 26 6 0 6 -6 -2 -15z m2757 -141 c37 -28 41 -39 16 -47 -10 -2 -25 -8
-34 -11 -20 -9 -34 31 -17 51 7 9 7 13 -1 13 -6 0 -11 5 -11 10 0 16 10 12 47
-16z m-327 -85 c0 -19 -5 -29 -15 -29 -8 0 -15 5 -15 10 0 6 -4 10 -10 10 -5
0 -7 -13 -3 -30 6 -34 2 -37 -21 -14 -15 14 -16 13 -16 -12 0 -22 -2 -25 -15
-14 -8 7 -15 23 -15 37 0 31 29 75 46 69 7 -3 18 2 25 10 17 20 39 -1 39 -37z
m559 -111 c10 -16 10 -23 2 -26 -6 -2 -11 -20 -11 -40 0 -20 -4 -43 -9 -51
-16 -25 -31 0 -31 51 0 44 -2 49 -15 38 -13 -10 -15 -9 -15 9 0 16 6 21 25 21
14 0 25 5 25 10 0 17 15 11 29 -12z m-359 -18 c0 -11 -6 -20 -14 -20 -18 0
-29 16 -21 30 11 18 35 11 35 -10z m127 5 c3 -9 3 -19 -1 -22 -7 -7 -36 16
-36 28 0 15 30 10 37 -6z m-337 -21 c0 -3 -13 -25 -30 -49 -16 -24 -30 -51
-30 -60 0 -9 -6 -23 -14 -30 -12 -12 -15 -12 -20 1 -3 8 -10 13 -15 10 -21
-13 -17 23 5 47 13 14 24 31 24 37 0 5 6 10 13 10 7 0 20 9 30 20 16 19 37 27
37 14z m-8 -86 c-7 -7 -12 -8 -12 -2 0 14 12 26 19 19 2 -3 -1 -11 -7 -17z
m-26 -83 c-3 -9 -19 -21 -35 -26 -17 -6 -31 -17 -33 -25 -2 -8 -8 -10 -16 -5
-16 10 -5 41 15 41 8 0 11 5 7 12 -4 6 -3 8 4 4 6 -3 19 7 29 24 17 29 18 30
27 11 5 -11 6 -27 2 -36z m42 -90 c-3 -3 -9 2 -12 12 -6 14 -5 15 5 6 7 -7 10
-15 7 -18z m229 -58 c16 -21 20 -37 16 -67 -4 -26 -2 -40 6 -40 6 0 11 6 11
13 0 7 10 18 23 26 12 7 19 10 15 6 -4 -4 -3 -18 3 -31 6 -17 5 -31 -3 -44
-15 -24 5 -52 30 -42 17 6 13 -3 -35 -73 -15 -22 -17 -39 -4 -31 15 10 19 -45
5 -73 -8 -14 -14 -33 -14 -41 -1 -35 -20 16 -20 53 0 20 -4 37 -9 37 -5 0 -13
10 -17 23 -6 20 -8 19 -19 -13 -7 -21 -13 -100 -13 -201 -1 -159 -5 -183 -42
-329 -5 -19 -9 -44 -9 -55 1 -18 2 -18 6 -2 7 28 28 14 25 -17 -4 -33 11 -34
26 -1 17 37 36 32 27 -7 -12 -51 -6 -110 12 -123 17 -13 10 -35 -11 -35 -16 0
-28 -70 -15 -85 15 -16 10 -25 -16 -25 -14 0 -25 -4 -25 -9 0 -11 22 -29 34
-29 5 0 21 -12 37 -27 l29 -27 1 309 c1 177 4 291 9 268 4 -22 13 -73 20 -112
12 -75 26 -94 33 -45 2 15 5 -34 7 -108 2 -74 5 -117 7 -95 2 22 13 86 23 143
24 124 24 122 5 122 -19 0 -20 19 -1 26 18 7 24 30 36 150 5 55 17 171 26 259
10 104 21 169 31 184 9 15 16 49 17 82 1 32 4 61 9 65 10 10 8 -103 -3 -151
-6 -28 -6 -42 3 -47 9 -6 9 -10 1 -15 -17 -12 -22 -36 -39 -196 -8 -82 -17
-153 -20 -157 -3 -5 -9 -62 -14 -127 -10 -126 -35 -308 -52 -383 -6 -25 -13
-96 -15 -159 -2 -63 -11 -134 -19 -158 -8 -24 -15 -51 -15 -59 0 -27 25 -9 28
20 2 15 14 46 27 69 14 23 32 57 41 76 17 36 32 54 156 185 43 45 78 75 78 68
0 -7 -34 -50 -75 -97 -41 -46 -75 -89 -75 -94 0 -6 -4 -11 -8 -11 -4 0 -19
-18 -32 -40 -14 -22 -28 -40 -32 -40 -5 0 -8 -7 -8 -15 0 -8 -13 -37 -30 -65
-16 -28 -30 -54 -30 -58 0 -4 -11 -24 -25 -44 -31 -46 -33 -72 -5 -63 19 6 20
2 20 -60 l0 -66 -32 3 c-23 2 -32 7 -30 18 2 8 6 31 9 50 4 34 4 34 -12 15
l-17 -20 5 20 c3 11 8 63 11 115 6 86 5 93 -9 76 -14 -19 -15 -18 -16 15 l-1
34 -10 -27 c-12 -33 -23 -35 -38 -7 -14 26 3 49 36 49 21 0 24 4 23 38 -1 23
-3 28 -6 15 -4 -19 -11 -23 -44 -23 -35 0 -39 -3 -39 -25 0 -30 -19 -75 -42
-96 -15 -14 -15 -16 0 -26 16 -10 16 -12 0 -30 -28 -30 -23 -46 11 -40 24 5
32 1 46 -19 20 -31 11 -46 -10 -16 -13 18 -19 19 -46 10 -40 -14 -60 2 -41 33
12 18 10 26 -12 60 -14 21 -26 45 -26 53 0 7 -7 17 -16 20 -10 4 -14 14 -11
26 3 13 0 20 -8 20 -22 0 -28 20 -8 27 10 4 21 11 25 17 5 7 8 7 8 -1 0 -7 4
-13 9 -13 14 0 44 85 37 107 -7 23 8 79 21 76 11 -2 -20 146 -37 178 -8 15 -6
25 10 47 18 25 19 33 10 82 -11 58 -6 105 12 116 8 5 9 -6 5 -34 -3 -23 -1
-42 4 -42 5 0 10 12 10 28 1 15 2 34 3 42 1 8 7 26 15 39 8 14 17 73 21 135 6
93 4 113 -9 124 -12 9 -12 15 -3 24 7 7 12 25 12 40 0 22 -4 28 -17 26 -17 -3
-19 1 -11 31 2 7 -2 15 -9 18 -8 3 -13 -16 -16 -64 l-3 -68 -2 82 c-2 63 2 85
14 98 11 11 14 23 8 43 -14 52 -15 67 -2 90 9 18 9 27 0 42 -7 11 -12 27 -12
35 0 8 -4 15 -10 15 -6 0 -5 10 2 25 6 13 15 22 19 19 5 -3 9 0 9 6 0 6 4 9 8
6 4 -2 14 -1 22 4 8 5 17 6 21 2 3 -4 15 -19 26 -35z m190 -59 c-3 -8 -6 -5
-6 6 -1 11 2 17 5 13 3 -3 4 -12 1 -19z m-80 -90 c-3 -8 -6 -5 -6 6 -1 11 2
17 5 13 3 -3 4 -12 1 -19z m197 -143 c3 -8 1 -15 -4 -15 -6 0 -10 7 -10 15 0
8 2 15 4 15 2 0 6 -7 10 -15z m1451 -94 c-20 -20 -29 -8 -15 19 10 18 14 20
21 9 5 -9 3 -19 -6 -28z m-10 -71 c-5 -48 -11 -60 -31 -60 -8 0 -13 4 -9 9 3
5 -7 11 -22 13 -39 4 -39 23 1 42 19 9 38 21 41 26 14 23 24 7 20 -30z m-1866
-21 c-21 -13 -39 -11 -39 5 0 8 10 16 23 18 26 4 36 -10 16 -23z m228 -16 c10
-41 8 -92 -4 -104 -7 -7 -17 3 -33 36 -18 38 -20 51 -11 71 14 32 39 30 48 -3z
m1580 -19 c-3 -3 -12 -4 -19 -1 -8 3 -5 6 6 6 11 1 17 -2 13 -5z m-1700 -96
c-3 -8 -6 -5 -6 6 -1 11 2 17 5 13 3 -3 4 -12 1 -19z m1277 -4 c23 -9 20 -23
-4 -21 -11 1 -20 7 -20 14 0 15 2 15 24 7z m56 -64 c0 -5 -2 -10 -4 -10 -3 0
-8 5 -11 10 -3 6 -1 10 4 10 6 0 11 -4 11 -10z m147 -116 c-3 -3 -12 -4 -19
-1 -8 3 -5 6 6 6 11 1 17 -2 13 -5z m243 -34 c0 -23 -26 -38 -41 -23 -14 14 0
43 22 43 12 0 19 -7 19 -20z m-37 -82 c15 -9 -13 -34 -45 -40 -29 -5 -42 10
-32 36 8 20 58 37 63 22 2 -6 9 -14 14 -18z m-973 -30 c0 -5 -9 -4 -20 2 -11
6 -20 12 -20 14 0 2 9 2 20 -1 11 -3 20 -9 20 -15z m230 12 c0 -5 -8 -10 -17
-10 -15 0 -16 2 -3 10 19 12 20 12 20 0z m-126 -32 c-3 -5 -18 -7 -33 -3 -43
11 -43 21 -1 17 23 -2 37 -8 34 -14z m-274 2 c0 -5 -4 -10 -10 -10 -5 0 -10 5
-10 10 0 6 5 10 10 10 6 0 10 -4 10 -10z m133 -25 c-3 -9 -8 -14 -10 -11 -3 3
-2 9 2 15 9 16 15 13 8 -4z m977 -19 c0 -13 3 -26 8 -29 4 -2 1 -2 -6 0 -8 1
-22 3 -33 3 -12 0 -19 7 -19 18 0 24 8 32 32 32 12 0 18 -7 18 -24z m-974
-135 c-1 -16 -4 -27 -8 -24 -5 2 -8 -1 -8 -6 0 -6 11 -11 24 -11 34 0 38 -12
22 -52 -19 -44 -39 -60 -68 -56 -28 4 -35 36 -18 93 22 76 58 112 56 56z
m1004 4 c0 -28 -25 -44 -42 -27 -15 15 1 52 23 52 14 0 19 -7 19 -25z m-822
-63 c-5 -27 -28 -26 -28 2 0 19 4 24 15 19 9 -3 15 -12 13 -21z m766 -47 c3
-9 -3 -19 -15 -25 -15 -9 -21 -7 -26 6 -3 9 0 20 8 25 20 12 26 11 33 -6z m43
-51 c8 -20 -21 -49 -41 -41 -19 8 -21 43 -3 50 23 10 38 7 44 -9z m-1622 -214
c-3 -5 -12 -7 -20 -3 -21 7 -19 13 6 13 11 0 18 -4 14 -10z m185 -45 c0 -8 -4
-15 -9 -15 -13 0 -22 16 -14 24 11 11 23 6 23 -9z m100 -181 c-18 -21 -24 -10
-9 18 8 14 14 18 17 10 2 -7 -2 -19 -8 -28z m230 -8 c0 -35 -10 -56 -26 -56
-14 0 -20 60 -7 73 15 15 33 6 33 -17z m-431 -32 c2 -10 12 -27 22 -37 23 -22
23 -25 1 -58 -13 -21 -21 -25 -38 -18 -12 4 -25 12 -29 18 -10 18 -25 13 -25
-8 0 -14 -6 -19 -20 -18 -11 1 -20 3 -20 5 0 11 42 62 48 58 4 -2 7 9 8 25 2
51 44 78 53 33z m72 -27 c-10 -9 -11 -8 -5 6 3 10 9 15 12 12 3 -3 0 -11 -7
-18z m97 -65 c2 -7 -6 -12 -17 -12 -21 0 -27 11 -14 24 9 9 26 2 31 -12z
m-246 -150 c3 9 6 9 12 0 4 -7 2 -12 -3 -12 -6 0 -11 -6 -11 -14 0 -7 -7 -19
-15 -26 -12 -10 -15 -10 -15 4 0 9 -5 16 -11 16 -8 0 -9 4 0 13 6 8 7 17 3 22
-4 4 3 3 15 -4 16 -8 22 -8 25 1z m346 -14 c17 -17 15 -38 -4 -38 -8 0 -23 7
-31 16 -14 13 -14 17 -2 25 19 12 23 11 37 -3z m-417 -84 c-6 -11 -15 -31 -21
-46 -11 -31 -30 -38 -30 -11 0 10 8 37 17 60 15 35 20 40 31 29 10 -10 11 -18
3 -32z m-21 -169 c0 -26 -14 -33 -25 -15 -9 14 1 40 15 40 5 0 10 -11 10 -25z
m10 -74 c0 -10 -7 -24 -16 -31 -12 -11 -18 -10 -31 3 -21 21 -9 47 22 47 18 0
25 -5 25 -19z m-173 -653 c-3 -7 -5 -2 -5 12 0 14 2 19 5 13 2 -7 2 -19 0 -25z
m-5232 -358 c3 -5 1 -10 -4 -10 -6 0 -11 5 -11 10 0 6 2 10 4 10 3 0 8 -4 11
-10z m55 -10 c0 -5 -7 -7 -15 -4 -8 4 -15 8 -15 10 0 2 7 4 15 4 8 0 15 -4 15
-10z m25 -90 c3 -5 -1 -10 -10 -10 -9 0 -13 5 -10 10 3 6 8 10 10 10 2 0 7 -4
10 -10z"/>
<path d="M6160 5760 c0 -12 -9 -24 -22 -29 -15 -5 -18 -10 -9 -15 14 -9 40 20
41 47 0 9 -2 17 -5 17 -3 0 -5 -9 -5 -20z"/>
<path d="M6230 5725 c0 -8 5 -15 10 -15 6 0 10 7 10 15 0 8 -4 15 -10 15 -5 0
-10 -7 -10 -15z"/>
<path d="M6080 5696 c0 -2 7 -9 15 -16 9 -7 15 -8 15 -2 0 5 -7 12 -15 16 -8
3 -15 4 -15 2z"/>
<path d="M6105 5570 c-3 -5 -1 -10 4 -10 6 0 11 5 11 10 0 6 -2 10 -4 10 -3 0
-8 -4 -11 -10z"/>
<path d="M6210 5365 c0 -18 14 -32 39 -40 17 -5 22 -4 19 6 -3 8 -13 16 -24
18 -10 2 -22 8 -26 15 -4 6 -8 7 -8 1z"/>
<path d="M6210 5210 c-9 -6 -10 -10 -3 -10 6 0 15 5 18 10 8 12 4 12 -15 0z"/>
<path d="M4566 4955 c4 -8 8 -15 10 -15 2 0 4 7 4 15 0 8 -4 15 -10 15 -5 0
-7 -7 -4 -15z"/>
<path d="M4796 4944 c-4 -9 -4 -19 -1 -22 2 -3 7 3 11 12 4 9 4 19 1 22 -2 3
-7 -3 -11 -12z"/>
<path d="M6341 4134 c0 -11 3 -14 6 -6 3 7 2 16 -1 19 -3 4 -6 -2 -5 -13z"/>
<path d="M6150 2328 c0 -7 7 -22 15 -32 14 -18 15 -18 15 -2 0 9 -7 24 -15 32
-11 12 -15 12 -15 2z"/>
<path d="M3120 5340 c0 -5 5 -10 11 -10 5 0 7 5 4 10 -3 6 -8 10 -11 10 -2 0
-4 -4 -4 -10z"/>
<path d="M3200 5151 c-7 -11 -24 -22 -37 -26 -19 -4 -23 -12 -23 -41 0 -43 25
-94 46 -94 12 0 14 7 9 30 -5 22 -1 39 14 64 21 33 29 86 13 86 -4 0 -14 -9
-22 -19z"/>
<path d="M3181 4816 c-16 -30 -6 -53 15 -35 15 12 20 59 6 59 -5 0 -14 -11
-21 -24z"/>
<path d="M3780 4785 c7 -8 10 -22 6 -30 -3 -8 -1 -15 4 -15 17 0 11 47 -6 54
-14 5 -15 4 -4 -9z"/>
<path d="M3740 4759 c0 -5 -6 -7 -12 -3 -9 5 -8 2 1 -9 8 -10 16 -15 19 -12
10 10 11 35 1 35 -5 0 -9 -5 -9 -11z"/>
<path d="M7831 4384 c-17 -12 -26 -13 -34 -5 -16 16 -27 13 -27 -7 0 -27 9
-32 31 -19 26 16 35 1 22 -34 -13 -33 -14 -33 39 11 39 31 9 82 -31 54z"/>
<path d="M7706 4333 c-6 -14 -5 -15 5 -6 7 7 10 15 7 18 -3 3 -9 -2 -12 -12z"/>
<path d="M3540 4270 c0 -5 5 -10 11 -10 5 0 7 5 4 10 -3 6 -8 10 -11 10 -2 0
-4 -4 -4 -10z"/>
<path d="M7968 3875 c-9 -10 5 -66 16 -62 17 6 20 67 3 67 -7 0 -16 -2 -19 -5z"/>
<path d="M3690 3759 c0 -5 5 -7 10 -4 6 3 10 8 10 11 0 2 -4 4 -10 4 -5 0 -10
-5 -10 -11z"/>
<path d="M7978 3739 c-6 -19 4 -79 13 -79 5 0 9 20 9 45 0 41 -13 61 -22 34z"/>
<path d="M2950 3690 c-9 -6 -10 -10 -3 -10 6 0 15 5 18 10 8 12 4 12 -15 0z"/>
<path d="M4627 3612 c-23 -25 -21 -42 3 -42 16 0 20 7 20 30 0 35 -2 36 -23
12z"/>
<path d="M3950 3510 c0 -5 5 -10 10 -10 6 0 10 5 10 10 0 6 -4 10 -10 10 -5 0
-10 -4 -10 -10z"/>
<path d="M4210 3510 c0 -5 14 -10 31 -10 17 0 28 4 24 10 -3 6 -17 10 -31 10
-13 0 -24 -4 -24 -10z"/>
<path d="M4040 3045 c0 -8 7 -15 16 -15 14 0 14 3 4 15 -7 8 -14 15 -16 15 -2
0 -4 -7 -4 -15z"/>
<path d="M4080 2896 c0 -8 4 -17 9 -20 5 -4 7 3 4 14 -6 23 -13 26 -13 6z"/>
<path d="M4230 2626 c0 -9 5 -16 10 -16 6 0 10 4 10 9 0 6 -4 13 -10 16 -5 3
-10 -1 -10 -9z"/>
<path d="M4133 2225 c0 -22 2 -30 4 -17 2 12 2 30 0 40 -3 9 -5 -1 -4 -23z"/>
<path d="M4240 2136 c0 -9 7 -16 16 -16 17 0 14 22 -4 28 -7 2 -12 -3 -12 -12z"/>
<path d="M4132 2110 c-1 -19 3 -53 7 -75 8 -35 9 -36 9 -10 0 17 -3 50 -7 75
-8 42 -9 43 -9 10z"/>
<path d="M5420 1965 c0 -11 -9 -38 -20 -60 -11 -22 -19 -45 -20 -51 0 -15 -35
-54 -48 -54 -15 0 -35 -38 -28 -55 5 -15 -17 -39 -27 -29 -4 4 -4 -3 -2 -15 2
-12 0 -19 -5 -16 -14 9 -19 -7 -35 -111 -8 -55 -19 -117 -25 -139 -15 -64 -11
-74 10 -22 10 27 23 54 28 60 5 7 15 30 22 52 7 22 28 61 47 87 18 26 33 55
33 64 0 8 16 47 35 85 26 52 35 83 35 120 0 31 4 48 10 44 12 -7 12 12 0 40
l-9 20 -1 -20z"/>
<path d="M4166 1814 c-4 -15 -2 -32 3 -37 8 -8 11 0 11 26 0 44 -5 47 -14 11z"/>
<path d="M6315 1423 c-13 -32 -18 -220 -6 -227 6 -4 11 0 12 11 0 10 2 66 4
126 2 59 3 107 1 107 -2 0 -7 -8 -11 -17z"/>
<path d="M5192 1340 c0 -14 2 -19 5 -12 2 6 2 18 0 25 -3 6 -5 1 -5 -13z"/>
<path d="M1236 1215 c-4 -33 -16 -80 -27 -104 -27 -62 -25 -77 6 -54 24 18 36
41 13 27 -8 -5 -9 -2 -4 12 13 34 27 124 24 152 -2 17 -7 5 -12 -33z"/>
<path d="M5162 1203 c-7 -15 -11 -43 -10 -61 l1 -33 17 26 c10 15 16 39 14 57
-5 42 -9 44 -22 11z"/>
<path d="M6061 1204 c0 -11 3 -14 6 -6 3 7 2 16 -1 19 -3 4 -6 -2 -5 -13z"/>
<path d="M6071 1144 c0 -11 3 -14 6 -6 3 7 2 16 -1 19 -3 4 -6 -2 -5 -13z"/>
<path d="M6082 1078 c-1 -26 -7 -38 -17 -38 -21 0 -19 -15 15 -87 17 -34 31
-78 31 -96 1 -19 3 -24 6 -13 3 10 -2 55 -11 100 -9 44 -18 101 -19 126 -3 41
-4 42 -5 8z"/>
<path d="M1159 973 c-14 -32 -34 -82 -43 -110 -10 -29 -21 -53 -25 -53 -16 0
-49 -77 -49 -116 1 -23 -7 -66 -16 -96 -19 -59 -18 -119 2 -126 9 -3 12 14 12
64 0 37 4 81 10 98 5 17 16 56 25 86 9 30 27 69 41 86 14 20 22 40 19 55 -3
14 8 50 26 87 17 35 29 68 27 73 -2 5 -15 -17 -29 -48z"/>
<path d="M5505 950 c-3 -6 1 -7 9 -4 18 7 21 14 7 14 -6 0 -13 -4 -16 -10z"/>
<path d="M5790 945 c-14 -8 -20 -14 -14 -15 5 0 19 7 30 15 24 18 16 19 -16 0z"/>
<path d="M5685 907 c-33 -11 -55 -22 -49 -24 11 -4 124 35 124 43 0 6 -8 4
-75 -19z"/>
<path d="M5545 865 c-39 -18 -11 -18 35 0 22 8 28 13 15 13 -11 0 -33 -6 -50
-13z"/>
<path d="M5918 743 c7 -3 16 -2 19 1 4 3 -2 6 -13 5 -11 0 -14 -3 -6 -6z"/>
<path d="M5675 665 c-16 -8 -23 -14 -15 -14 8 0 26 6 40 14 32 18 15 18 -25 0z"/>
<path d="M1673 653 c9 -2 25 -2 35 0 9 3 1 5 -18 5 -19 0 -27 -2 -17 -5z"/>
<path d="M1781 636 c20 -7 54 -23 75 -36 25 -16 34 -18 26 -8 -16 20 -95 58
-119 58 -10 -1 -2 -7 18 -14z"/>
<path d="M5604 634 c-18 -14 -18 -14 6 -3 31 14 36 19 24 19 -6 0 -19 -7 -30
-16z"/>
<path d="M6151 634 c0 -11 3 -14 6 -6 3 7 2 16 -1 19 -3 4 -6 -2 -5 -13z"/>
<path d="M6057 603 c-14 -13 -6 -33 12 -33 25 0 38 20 20 31 -17 11 -24 11
-32 2z"/>
<path d="M5467 568 c-15 -5 -25 -14 -22 -18 7 -11 55 9 55 22 0 4 -1 8 -2 7
-2 0 -15 -5 -31 -11z"/>
<path d="M6053 523 c0 -7 4 -13 9 -13 5 0 7 -4 3 -9 -9 -15 15 -24 30 -11 11
9 12 16 3 30 -13 21 -45 23 -45 3z"/>
<path d="M6097 420 c-19 -32 -12 -38 17 -17 14 10 16 18 10 30 -8 15 -12 13
-27 -13z"/>
</g>
</svg>
